<?xml version="1.0" standalone="no"?>
<!DOCTYPE svg PUBLIC "-//W3C//DTD SVG 20010904//EN"
 "http://www.w3.org/TR/2001/REC-SVG-20010904/DTD/svg10.dtd">
<svg version="1.0" xmlns="http://www.w3.org/2000/svg"
 width="600.000000pt" height="328.000000pt" viewBox="0 0 600.000000 328.000000"
 preserveAspectRatio="xMidYMid meet">
<g transform="translate(0.000000,328.000000) scale(0.100000,-0.100000)"
fill="#000000" stroke="none">
<path d="M2779 2346 c-64 -18 -144 -63 -200 -114 -62 -56 -121 -145 -202 -308
-36 -72 -72 -134 -80 -137 -9 -3 -48 64 -130 229 -64 129 -117 239 -117 245 0
6 21 9 53 7 60 -3 45 16 151 -207 l64 -134 21 48 c12 26 21 53 21 59 0 6 -32
80 -72 164 l-72 152 -158 0 c-87 0 -158 -2 -158 -4 0 -4 350 -697 355 -704 2
-2 18 3 37 11 52 22 93 77 169 229 112 225 190 308 324 343 92 24 195 3 265
-54 l25 -21 -47 20 c-75 32 -127 35 -206 11 -78 -23 -149 -72 -205 -140 -20
-25 -71 -112 -113 -193 -78 -152 -146 -243 -190 -254 -13 -3 -24 -11 -23 -18
0 -6 22 -54 49 -106 l48 -95 25 55 c112 250 280 570 293 558 1 -2 -1 -36 -6
-76 -11 -83 -1 -148 32 -219 27 -57 91 -124 145 -151 54 -28 149 -45 205 -39
59 7 55 -6 -6 -22 -102 -25 -207 -6 -289 54 -71 53 -107 109 -144 225 -3 9
-18 -12 -39 -53 -39 -77 -38 -84 31 -168 162 -194 444 -220 629 -58 l46 41 0
-71 0 -71 130 0 130 0 0 96 c0 96 0 97 -36 140 -19 24 -38 44 -42 44 -4 0 -6
-43 -4 -95 l3 -95 -45 0 -46 0 0 129 0 129 -50 31 c-47 29 -100 49 -185 69
-38 9 -37 10 30 11 133 2 253 -46 337 -136 24 -27 90 -110 147 -185 l103 -138
165 0 164 0 -186 246 c-112 147 -183 250 -178 257 4 6 83 108 176 227 94 118
174 221 180 228 7 9 -25 12 -155 12 l-165 0 -99 -129 c-54 -72 -102 -130 -106
-130 -5 -1 -8 58 -8 129 l0 130 -130 0 -130 0 0 -180 c0 -146 3 -180 14 -180
7 0 28 -3 45 -6 l31 -6 0 146 0 147 43 -3 42 -3 3 -162 2 -163 29 -14 28 -15
143 180 143 179 48 0 c27 0 49 -3 49 -7 0 -5 -67 -93 -150 -197 -82 -104 -147
-193 -143 -199 3 -6 71 -96 150 -200 79 -105 143 -193 143 -196 0 -3 -24 -4
-54 -3 l-53 4 -112 148 c-132 175 -192 237 -269 276 -53 27 -65 29 -172 29
-107 0 -119 -2 -170 -29 -50 -26 -147 -113 -137 -122 2 -3 27 1 55 7 46 11 54
10 99 -12 27 -14 54 -36 63 -52 15 -28 14 -29 -19 -57 -93 -79 -256 -47 -332
65 -73 107 -65 260 17 337 33 31 92 58 127 58 37 0 109 -28 134 -52 28 -26 27
-26 97 73 l46 67 -39 35 c-52 47 -115 82 -180 101 -64 19 -187 20 -252 2z"/>
<path d="M1420 1181 c0 -6 4 -12 8 -15 5 -3 24 -44 42 -91 18 -47 36 -85 40
-85 4 0 22 38 40 85 18 47 37 88 42 91 17 11 7 24 -18 24 -20 0 -24 -3 -16
-12 6 -9 3 -31 -13 -72 -24 -64 -24 -64 -53 11 -14 37 -16 55 -9 62 8 8 0 11
-26 11 -20 0 -37 -4 -37 -9z"/>
<path d="M1628 1179 c16 -17 16 -161 0 -177 -9 -9 4 -12 59 -12 64 0 71 2 76
22 8 29 0 36 -16 14 -9 -12 -23 -17 -42 -14 -26 3 -30 8 -33 37 -3 34 -3 34
32 28 33 -5 36 -4 36 19 0 21 -2 23 -19 13 -28 -18 -51 -4 -51 31 0 27 3 30
31 30 18 0 38 -7 46 -17 12 -17 13 -16 11 7 -3 24 -7 25 -73 28 -56 2 -68 1
-57 -9z"/>
<path d="M1790 1181 c0 -6 5 -13 10 -16 14 -9 13 -148 -2 -163 -9 -9 -6 -12
15 -12 28 0 34 9 16 27 -5 5 -9 37 -7 69 l3 59 58 -77 c31 -43 61 -78 65 -78
4 0 8 37 8 83 0 45 4 90 8 100 7 14 3 17 -19 17 -23 0 -25 -3 -16 -14 7 -8 11
-37 9 -67 l-3 -53 -44 60 c-25 32 -49 62 -55 66 -16 11 -46 10 -46 -1z"/>
<path d="M2011 1169 c12 -24 12 -159 -1 -159 -5 0 -10 -4 -10 -10 0 -5 17 -10
37 -10 29 0 34 3 25 12 -13 13 -17 78 -4 78 5 0 22 -20 40 -45 23 -33 38 -45
57 -45 25 0 24 1 -20 55 -25 31 -45 60 -45 65 0 4 18 24 41 44 l41 35 -30 -1
c-18 -1 -28 -6 -26 -12 3 -7 -11 -27 -31 -46 l-35 -34 0 35 c0 19 5 40 10 45
7 7 -1 10 -24 10 -30 0 -33 -2 -25 -17z"/>
<path d="M2260 1164 c-30 -82 -54 -140 -62 -148 -15 -17 -9 -26 18 -26 22 0
24 3 15 14 -20 23 4 56 39 56 23 0 31 -5 36 -24 3 -14 3 -30 -1 -35 -4 -7 7
-11 29 -11 32 0 49 13 28 22 -4 2 -23 39 -41 83 -40 99 -47 106 -61 69z m25
-71 c5 -19 2 -23 -14 -23 -21 0 -26 15 -15 45 8 19 19 10 29 -22z"/>
<path d="M2366 1182 c-3 -3 -6 -15 -6 -26 1 -20 2 -20 14 -3 7 9 21 17 30 17
13 0 16 -12 16 -78 0 -47 -5 -83 -12 -90 -9 -9 -2 -12 32 -12 34 0 41 3 32 12
-7 7 -12 43 -12 90 0 71 2 78 20 78 10 0 23 -8 29 -17 12 -23 22 -13 14 15 -5
20 -11 22 -78 21 -41 -1 -76 -3 -79 -7z"/>
<path d="M2590 1163 c-30 -80 -54 -139 -62 -147 -14 -16 -9 -26 13 -26 15 0
19 4 15 16 -10 27 12 54 44 54 23 0 31 -5 36 -24 3 -14 3 -30 -1 -35 -4 -7 7
-11 29 -11 20 0 36 5 36 10 0 6 -4 10 -9 10 -4 0 -23 38 -41 85 -18 47 -37 88
-42 91 -4 3 -13 -7 -18 -23z m30 -85 c0 -5 -11 -8 -24 -8 -24 0 -24 2 -14 31
l11 32 13 -24 c7 -13 13 -27 14 -31z"/>
<path d="M2764 1180 c-33 -13 -54 -50 -54 -93 0 -52 43 -97 93 -97 52 0 67 9
67 39 0 15 5 32 12 39 9 9 3 12 -31 12 -39 0 -41 -1 -26 -16 22 -23 15 -48
-16 -52 -47 -6 -76 59 -55 125 14 43 81 47 105 6 10 -17 10 -16 11 4 0 37 -55
54 -106 33z"/>
<path d="M2938 1160 c-28 -28 -30 -36 -25 -78 10 -90 97 -123 159 -62 28 28
30 36 25 78 -10 90 -97 123 -159 62z m97 -5 c19 -18 25 -35 25 -68 0 -73 -43
-104 -86 -62 -32 32 -34 105 -4 135 26 26 36 25 65 -5z"/>
<path d="M3139 1103 c2 -56 -1 -88 -9 -98 -11 -13 -6 -15 31 -15 33 0 40 3 31
12 -7 7 -12 24 -12 40 0 23 5 28 35 34 36 6 55 28 55 62 0 30 -28 47 -84 48
l-51 1 4 -84z m86 27 c0 -29 -4 -36 -22 -38 -21 -3 -23 1 -23 38 0 37 2 41 23
38 18 -2 22 -9 22 -38z"/>
<path d="M3300 1171 c14 -27 13 -154 -2 -169 -9 -9 -3 -12 27 -12 30 0 36 3
27 12 -16 16 -16 160 0 176 9 9 4 12 -25 12 -34 0 -37 -2 -27 -19z"/>
<path d="M3399 1172 c13 -26 14 -138 1 -161 -10 -19 -8 -21 27 -21 29 0 34 3
25 12 -7 7 -12 28 -12 48 l1 35 22 -26 c12 -15 30 -36 39 -48 11 -12 29 -21
45 -21 24 1 26 3 13 13 -23 18 -80 93 -80 105 0 6 19 27 42 46 l42 36 -33 0
c-24 0 -32 -4 -28 -14 3 -7 -10 -28 -29 -47 l-34 -33 0 35 c0 19 5 40 11 46 8
8 1 11 -25 11 -30 0 -34 -3 -27 -16z"/>
<path d="M3599 1106 c2 -58 -1 -91 -9 -101 -11 -13 -7 -15 23 -15 l35 0 -6 45
c-6 57 9 58 40 3 15 -28 31 -44 46 -46 28 -4 28 -1 -7 49 -27 41 -28 42 -10
60 41 41 14 78 -61 86 l-55 5 4 -86z m75 58 c22 -9 20 -51 -3 -64 -29 -15 -31
-13 -31 30 0 40 5 45 34 34z"/>
<path d="M3779 1177 c15 -15 14 -160 -1 -175 -9 -9 -4 -12 22 -12 l35 0 0 99
0 99 -33 0 c-25 0 -31 -3 -23 -11z"/>
<path d="M3896 1177 c-23 -17 -24 -66 -3 -81 9 -6 30 -19 47 -28 42 -23 37
-52 -8 -56 -27 -3 -35 1 -39 17 -6 24 -23 28 -23 7 0 -42 66 -60 108 -30 17
12 22 24 20 47 -2 26 -11 36 -43 53 -43 22 -58 57 -29 68 11 4 26 -2 41 -15
23 -22 23 -22 23 -2 0 33 -59 46 -94 20z"/>
<path d="M4040 1171 c14 -27 13 -154 -2 -169 -9 -9 -3 -12 27 -12 30 0 36 3
27 12 -7 7 -12 29 -12 50 0 38 0 38 40 38 40 0 40 0 40 -38 0 -21 -5 -43 -12
-50 -9 -9 -2 -12 32 -12 34 0 41 3 32 12 -15 15 -16 160 -1 175 7 7 -2 10 -31
10 -29 0 -38 -3 -31 -10 6 -6 11 -26 11 -44 0 -32 -1 -33 -40 -33 -39 0 -40 1
-40 33 0 18 5 38 12 45 9 9 4 12 -25 12 -34 0 -37 -2 -27 -19z"/>
<path d="M4248 1178 c16 -16 16 -160 0 -176 -9 -9 -4 -12 22 -12 26 0 31 3 22
12 -7 7 -12 40 -12 77 l0 64 57 -76 c31 -42 60 -77 65 -77 4 0 8 38 8 84 0 46
3 91 6 100 5 12 0 16 -22 16 -22 0 -25 -3 -16 -12 7 -7 12 -37 12 -67 l0 -55
-40 55 c-47 63 -66 79 -94 79 -16 0 -17 -3 -8 -12z"/>
<path d="M4490 1103 c-18 -49 -37 -94 -43 -100 -7 -10 -3 -13 18 -13 21 0 25
3 17 13 -18 23 4 57 37 57 24 0 32 -5 37 -24 3 -14 3 -30 -1 -35 -4 -7 9 -11
35 -11 l41 0 -20 28 c-10 15 -31 60 -47 100 -15 39 -30 72 -34 72 -4 0 -22
-39 -40 -87z m50 -20 c0 -7 -9 -13 -20 -13 -22 0 -23 3 -13 39 6 23 7 23 20 6
7 -11 13 -25 13 -32z"/>
</g>
</svg>
